<?xml version="1.0" encoding="utf-8"?>
<!-- Generator: Adobe Illustrator 19.0.0, SVG Export Plug-In . SVG Version: 6.00 Build 0)  -->
<svg version="1.1" id="Layer_1" xmlns="http://www.w3.org/2000/svg" xmlns:xlink="http://www.w3.org/1999/xlink" x="0px" y="0px"
	 viewBox="0 0 2048 2048" style="enable-background:new 0 0 2048 2048;" xml:space="preserve">
<style type="text/css">
	.st0{fill:#EA4242;}
</style>
<g>
	<path class="st0" d="M452.5,1929.3c2.3,54,46.7,96.6,100.8,96.6h941.4c54.1,0,98.5-42.6,100.8-96.6L1662.7,510H385.3L452.5,1929.3z
		 M1237,862.5c0-22.6,18.3-41,41-41h65.5c22.6,0,41,18.4,41,41v810.9c0,22.6-18.4,41-41,41h-65.5c-22.6,0-41-18.3-41-41V862.5z
		 M950.3,862.5c0-22.6,18.3-41,40.9-41h65.5c22.6,0,40.9,18.4,40.9,41v810.9c0,22.6-18.3,41-40.9,41h-65.5
		c-22.6,0-40.9-18.3-40.9-41V862.5z M663.6,862.5c0-22.6,18.3-41,41-41h65.5c22.6,0,41,18.4,41,41v810.9c0,22.6-18.3,41-41,41h-65.5
		c-22.6,0-41-18.3-41-41V862.5z M663.6,862.5"/>
	<path class="st0" d="M1707.5,125.3h-434.3V43.2c0-11.7-9.5-21.1-21.1-21.1H796c-11.7,0-21.1,9.5-21.1,21.1v82.1H340.5
		c-34.9,0-63.3,28.3-63.3,63.3v198.8h1493.5V188.6C1770.8,153.6,1742.4,125.3,1707.5,125.3L1707.5,125.3z M1707.5,125.3"/>
</g>
</svg>
