<svg id="Capa_1" enable-background="new 0 0 512 512" height="512" viewBox="0 0 512 512" width="512" xmlns="http://www.w3.org/2000/svg"><g><g><g><path d="m361.005 465.878 32.411-384.154h-317.763l32.411 384.154c2.2 26.077 24.008 46.122 50.177 46.122h152.587c26.17 0 47.977-20.045 50.177-46.122z" fill="#eaf2ff"/><path d="m381.576 81.724-32.411 384.154c-2.2 26.077-24.008 46.122-50.177 46.122h54.771c26.17 0 47.977-20.045 50.177-46.122l32.411-384.154z" fill="#c9e0fd"/><g><path d="m320.879 95.185c-4.204 0-7.611-3.408-7.611-7.611v-55.534c0-9.273-7.544-16.817-16.818-16.817h-80.9c-9.274 0-16.818 7.544-16.818 16.817v55.533c0 4.204-3.407 7.611-7.611 7.611s-7.611-3.408-7.611-7.611v-55.533c-.001-17.667 14.373-32.04 32.04-32.04h80.9c17.667 0 32.041 14.373 32.041 32.04v55.533c0 4.204-3.408 7.612-7.612 7.612z" fill="#7fb2f9"/></g><path d="m431.669 93.901c0-15.186-12.311-27.497-27.497-27.497h-340.355c-15.186 0-27.497 12.311-27.497 27.497 0 15.186 12.311 27.497 27.497 27.497h340.355c15.187 0 27.497-12.311 27.497-27.497z" fill="#9bc4f9"/><path d="m448.183 66.404h-55.85c15.186 0 27.497 12.311 27.497 27.497 0 15.186-12.311 27.497-27.497 27.497h55.85c15.186 0 27.497-12.311 27.497-27.497 0-15.186-12.311-27.497-27.497-27.497z" fill="#7fb2f9"/></g><g><g><g><g><path d="m327.515 432.431c-.215 0-.431-.009-.649-.027-4.188-.354-7.297-4.036-6.944-8.224l18.934-224.418c.353-4.19 4.032-7.298 8.225-6.945 4.188.354 7.297 4.036 6.944 8.224l-18.934 224.418c-.335 3.971-3.662 6.972-7.576 6.972z" fill="#9bc4f9"/></g><g><path d="m184.485 432.431c-3.914 0-7.241-3.001-7.576-6.972l-18.934-224.418c-.353-4.189 2.756-7.871 6.945-8.224 4.187-.351 7.872 2.755 8.225 6.945l18.934 224.418c.353 4.189-2.756 7.871-6.945 8.224-.218.018-.434.027-.649.027z" fill="#9bc4f9"/></g></g></g><g><path d="m256 432.43c-4.204 0-7.611-3.408-7.611-7.611v-224.418c0-4.204 3.407-7.611 7.611-7.611s7.612 3.408 7.612 7.611v224.418c0 4.203-3.408 7.611-7.612 7.611z" fill="#9bc4f9"/></g></g></g></g></svg>